<svg width="1920" height="1080" viewBox="0 0 1920 1080" fill="none" xmlns="http://www.w3.org/2000/svg">
<g clip-path="url(#clip0_229_21)">
<rect width="1920" height="1080" fill="#925FE2"/>
<path fill-rule="evenodd" clip-rule="evenodd" d="M1753.29 363.014C1832.97 328.743 1896.41 253.202 1992.59 285.378C2105.46 323.135 2229.33 409.823 2295.48 544.399C2361.38 678.441 2338.81 817.215 2313.86 938.874C2291.1 1049.84 2245.95 1144.84 2163.7 1186.94C2080.85 1229.35 1977.73 1204.87 1874.37 1163.85C1748.06 1113.72 1597.72 1079.21 1519.1 931.13C1439.7 781.579 1466.66 611.39 1516.66 490.081C1557.17 391.819 1667.74 399.809 1753.29 363.014Z" fill="#9C6FE4"/>
<path fill-rule="evenodd" clip-rule="evenodd" d="M1644.18 -104.329C1710.64 -116.256 1769.52 -62.0773 1816.72 -13.7965C1863.27 33.8225 1907.63 92.4428 1901.35 158.738C1895.37 221.846 1839.49 266.079 1786.86 301.412C1744.91 329.57 1694.57 327.713 1644.18 331.386C1587.06 335.551 1525.86 356.88 1479.07 323.851C1427.19 287.233 1389.68 221.457 1399.6 158.738C1408.96 99.5328 1483.34 82.6114 1524.16 38.7128C1568.22 -8.67467 1580.5 -92.898 1644.18 -104.329Z" fill="#9C6FE4"/>
<path fill-rule="evenodd" clip-rule="evenodd" d="M835.374 284.736C891.752 286.383 953.63 271.888 996.368 308.694C1040.94 347.076 1055.47 411.114 1050.13 469.688C1045.21 523.692 1009.68 567.403 969.479 603.793C931.705 637.983 886.206 660.623 835.374 664.072C780.424 667.8 721.459 661.477 681.748 623.313C641.488 584.621 636.046 525.45 633.113 469.688C629.953 409.622 620.3 339.594 664.689 299.004C708.49 258.951 776.047 283.003 835.374 284.736Z" fill="#9C6FE4"/>
<path fill-rule="evenodd" clip-rule="evenodd" d="M1808.81 179.501C1837.86 180.35 1869.74 172.881 1891.76 191.844C1914.72 211.619 1922.21 244.613 1919.46 274.791C1916.92 302.614 1898.62 325.135 1877.9 343.883C1858.44 361.499 1835 373.163 1808.81 374.94C1780.5 376.861 1750.12 373.603 1729.66 353.941C1708.92 334.006 1706.11 303.52 1704.6 274.791C1702.98 243.844 1698 207.764 1720.87 186.852C1743.44 166.216 1778.25 178.608 1808.81 179.501Z" fill="#9C6FE4"/>
<path fill-rule="evenodd" clip-rule="evenodd" d="M1209.31 -22.9417C1236.22 -45.5969 1271.62 -50.6073 1306.8 -51.2766C1339 -51.8894 1372.82 -48.4652 1396.38 -26.5016C1419.09 -5.32853 1418.22 28.1533 1424.58 58.5424C1432.48 96.2891 1456.69 135.757 1437.32 169.101C1416.57 204.799 1371.35 219.04 1330.12 221.108C1290.25 223.108 1254.28 204.102 1222.55 179.875C1188.75 154.062 1150.99 124.646 1148.22 82.2048C1145.47 40.1561 1177.07 4.19431 1209.31 -22.9417Z" fill="#9C6FE4"/>
<path fill-rule="evenodd" clip-rule="evenodd" d="M953.307 825.058C980.222 802.403 1015.62 797.393 1050.8 796.723C1083 796.111 1116.82 799.535 1140.38 821.498C1163.09 842.672 1162.22 876.153 1168.58 906.542C1176.48 944.289 1200.69 983.757 1181.32 1017.1C1160.57 1052.8 1115.35 1067.04 1074.12 1069.11C1034.25 1071.11 998.28 1052.1 966.554 1027.88C932.751 1002.06 894.992 972.646 892.22 930.205C889.474 888.156 921.069 852.194 953.307 825.058Z" fill="#9C6FE4"/>
</g>
<defs>
<clipPath id="clip0_229_21">
<rect width="1920" height="1080" fill="white"/>
</clipPath>
</defs>
</svg>
