<svg width="38" height="45" viewBox="0 0 38 45" fill="none" xmlns="http://www.w3.org/2000/svg">
<path fill-rule="evenodd" clip-rule="evenodd" d="M2.43034 1.84717C0.916504 3.361 0.916504 5.7945 0.916504 10.6667V33.9167C0.916504 38.7888 0.916504 41.2223 2.43034 42.7362C3.94417 44.25 6.37767 44.25 11.2498 44.25H26.7498C31.622 44.25 34.0555 44.25 35.5693 42.7362C37.0832 41.2223 37.0832 38.7888 37.0832 33.9167V10.6667C37.0832 5.7945 37.0832 3.361 35.5693 1.84717C34.0555 0.333336 31.622 0.333336 26.7498 0.333336H11.2498C6.37767 0.333336 3.94417 0.333336 2.43034 1.84717ZM11.2498 10.6667C10.5647 10.6667 9.90761 10.9388 9.42315 11.4233C8.93868 11.9078 8.6665 12.5649 8.6665 13.25C8.6665 13.9351 8.93868 14.5922 9.42315 15.0767C9.90761 15.5612 10.5647 15.8333 11.2498 15.8333H26.7498C27.435 15.8333 28.0921 15.5612 28.5765 15.0767C29.061 14.5922 29.3332 13.9351 29.3332 13.25C29.3332 12.5649 29.061 11.9078 28.5765 11.4233C28.0921 10.9388 27.435 10.6667 26.7498 10.6667H11.2498ZM11.2498 21C10.5647 21 9.90761 21.2722 9.42315 21.7566C8.93868 22.2411 8.6665 22.8982 8.6665 23.5833C8.6665 24.2685 8.93868 24.9256 9.42315 25.41C9.90761 25.8945 10.5647 26.1667 11.2498 26.1667H26.7498C27.435 26.1667 28.0921 25.8945 28.5765 25.41C29.061 24.9256 29.3332 24.2685 29.3332 23.5833C29.3332 22.8982 29.061 22.2411 28.5765 21.7566C28.0921 21.2722 27.435 21 26.7498 21H11.2498ZM11.2498 31.3333C10.5647 31.3333 9.90761 31.6055 9.42315 32.09C8.93868 32.5744 8.6665 33.2315 8.6665 33.9167C8.6665 34.6018 8.93868 35.2589 9.42315 35.7434C9.90761 36.2278 10.5647 36.5 11.2498 36.5H21.5832C22.2683 36.5 22.9254 36.2278 23.4099 35.7434C23.8943 35.2589 24.1665 34.6018 24.1665 33.9167C24.1665 33.2315 23.8943 32.5744 23.4099 32.09C22.9254 31.6055 22.2683 31.3333 21.5832 31.3333H11.2498Z" fill="white"/>
</svg>
