<svg width="50" height="50" viewBox="0 0 50 50" fill="none" xmlns="http://www.w3.org/2000/svg">
<g clip-path="url(#clip0_253_100)">
<path d="M5 40H10V50.2025L22.7525 40H35C37.7575 40 40 37.7575 40 35V15C40 12.2425 37.7575 10 35 10H5C2.2425 10 0 12.2425 0 15V35C0 37.7575 2.2425 40 5 40Z" fill="white"/>
<path d="M45 0H15C12.2425 0 10 2.2425 10 5H40C42.7575 5 45 7.2425 45 10V30C47.7575 30 50 27.7575 50 25V5C50 2.2425 47.7575 0 45 0Z" fill="white"/>
</g>
<defs>
<clipPath id="clip0_253_100">
<rect width="50" height="50" fill="white"/>
</clipPath>
</defs>
</svg>
