<svg width="54" height="52" viewBox="0 0 54 52" fill="none" xmlns="http://www.w3.org/2000/svg">
<path fill-rule="evenodd" clip-rule="evenodd" d="M32.4266 1.49067C33.4133 0.781336 34.8 0.450669 36.1626 0.949336C39.0595 2.01111 41.75 3.56753 44.1146 5.54934C45.2266 6.48267 45.6346 7.84534 45.512 9.05067C45.312 11.0587 45.664 12.9973 46.632 14.6667C47.4853 16.152 48.7706 17.3253 50.3386 18.152L50.9386 18.4453C52.0426 18.944 53.024 19.9813 53.272 21.4133C53.8019 24.4482 53.8019 27.5518 53.272 30.5867C53.0506 31.8773 52.232 32.8453 51.264 33.3893L50.9386 33.5573C49.0986 34.384 47.5946 35.664 46.6293 37.3333C45.664 39.0053 45.312 40.9413 45.512 42.9493C45.632 44.1547 45.2266 45.52 44.1146 46.4507C41.75 48.4325 39.0595 49.9889 36.1626 51.0507C35.5435 51.2721 34.8795 51.3386 34.2287 51.2442C33.5779 51.1499 32.9601 50.8976 32.4293 50.5093C30.7866 49.3333 28.928 48.6667 27 48.6667C25.072 48.6667 23.2133 49.3307 21.5733 50.5093C21.0422 50.898 20.424 51.1506 19.7727 51.2449C19.1214 51.3393 18.4569 51.2726 17.8373 51.0507C14.9405 49.9889 12.2499 48.4325 9.88531 46.4507C9.38439 46.0254 8.99516 45.4839 8.75159 44.8736C8.50802 44.2633 8.41752 43.6027 8.48798 42.9493C8.68798 40.9413 8.33331 39.0027 7.36798 37.3333C6.49041 35.8416 5.2042 34.6322 3.66131 33.848L3.06131 33.5547C2.45944 33.2883 1.93203 32.8785 1.52525 32.3611C1.11847 31.8437 0.844725 31.2344 0.727981 30.5867C0.198095 27.5518 0.198095 24.4482 0.727981 21.4133C0.949314 20.1227 1.76798 19.1547 2.73598 18.6107L3.06131 18.4453C4.90131 17.616 6.40531 16.3387 7.37065 14.6667C8.33331 12.9973 8.68798 11.0587 8.48798 9.05067C8.41752 8.39734 8.50802 7.73669 8.75159 7.12638C8.99516 6.51606 9.38439 5.97463 9.88531 5.54934C12.2499 3.56753 14.9405 2.01111 17.8373 0.949336C18.4565 0.72786 19.1205 0.661401 19.7713 0.755766C20.4221 0.850131 21.0399 1.10245 21.5706 1.49067C23.2106 2.66934 25.0693 3.33334 27 3.33334C28.9306 3.33334 30.7866 2.66934 32.4266 1.49067ZM34.9786 6.208C32.6693 7.728 29.9466 8.66667 27 8.66667C24.0533 8.66667 21.3306 7.72534 19.0213 6.208C17.165 6.95766 15.4235 7.96487 13.848 9.2C14.008 11.9547 13.4613 14.7813 11.9893 17.3333C10.5146 19.8827 8.34131 21.768 5.87465 23.008C5.59401 24.991 5.59401 27.0037 5.87465 28.9867C8.34131 30.2267 10.5146 32.112 11.9893 34.6667C13.4613 37.2133 14.008 40.04 13.848 42.7947C15.4233 44.0307 17.1649 45.0389 19.0213 45.7893C21.3306 44.2693 24.0533 43.3307 27 43.3307C29.9466 43.3307 32.6693 44.272 34.9786 45.7893C36.8349 45.0397 38.5765 44.0325 40.152 42.7973C39.992 40.04 40.5386 37.2133 42.0106 34.664C43.4826 32.112 45.6586 30.2267 48.1253 28.984C48.4054 27.0027 48.4054 24.9919 48.1253 23.0107C45.6586 21.768 43.4853 19.8827 42.0106 17.3307C40.5386 14.7813 39.992 11.9547 40.152 9.19734C38.5765 7.96221 36.8349 6.95766 34.9786 6.208ZM27 15.3333C29.829 15.3333 32.5421 16.4571 34.5425 18.4575C36.5428 20.4579 37.6666 23.171 37.6666 26C37.6666 28.829 36.5428 31.5421 34.5425 33.5425C32.5421 35.5429 29.829 36.6667 27 36.6667C24.171 36.6667 21.4579 35.5429 19.4575 33.5425C17.4571 31.5421 16.3333 28.829 16.3333 26C16.3333 23.171 17.4571 20.4579 19.4575 18.4575C21.4579 16.4571 24.171 15.3333 27 15.3333ZM27 20.6667C25.5855 20.6667 24.2289 21.2286 23.2287 22.2288C22.2286 23.229 21.6666 24.5855 21.6666 26C21.6666 27.4145 22.2286 28.771 23.2287 29.7712C24.2289 30.7714 25.5855 31.3333 27 31.3333C28.4145 31.3333 29.771 30.7714 30.7712 29.7712C31.7714 28.771 32.3333 27.4145 32.3333 26C32.3333 24.5855 31.7714 23.229 30.7712 22.2288C29.771 21.2286 28.4145 20.6667 27 20.6667Z" fill="white"/>
</svg>
