<svg width="42" height="43" viewBox="0 0 42 43" fill="none" xmlns="http://www.w3.org/2000/svg">
<path d="M19.1077 23.9493L22.3347 42.2473H2.33333C1.71449 42.2473 1.121 42.0015 0.683417 41.5639C0.245833 41.1263 0 40.5328 0 39.914V27.3233L19.1077 23.9493ZM39.6667 0.249663C40.2855 0.249663 40.879 0.495496 41.3166 0.933081C41.7542 1.37067 42 1.96416 42 2.583V39.9163C42 40.5352 41.7542 41.1287 41.3166 41.5662C40.879 42.0038 40.2855 42.2497 39.6667 42.2497L27.0713 42.2473L19.6653 0.24733L39.6667 0.249663ZM14.9287 0.24733L18.298 19.3527L0 22.5843V2.583C0 1.96416 0.245833 1.37067 0.683417 0.933081C1.121 0.495496 1.71449 0.249663 2.33333 0.249663L14.9287 0.24733Z" fill="white"/>
</svg>
