<svg width="42" height="44" viewBox="0 0 42 44" fill="none" xmlns="http://www.w3.org/2000/svg">
<g clip-path="url(#clip0_253_273)">
<path fill-rule="evenodd" clip-rule="evenodd" d="M4.52238 16.3333C4.52238 12.0015 6.24321 7.84702 9.3063 4.78392C12.3694 1.72083 16.5238 0 20.8557 0C25.1876 0 29.342 1.72083 32.4051 4.78392C35.4682 7.84702 37.189 12.0015 37.189 16.3333V25.116L41.4404 33.6187C41.6361 34.01 41.7285 34.4449 41.7088 34.882C41.6892 35.3191 41.5581 35.7439 41.328 36.1161C41.098 36.4883 40.7766 36.7955 40.3944 37.0086C40.0122 37.2216 39.5819 37.3334 39.1444 37.3333H29.895C29.376 39.3359 28.2067 41.1094 26.5707 42.3755C24.9346 43.6416 22.9244 44.3285 20.8557 44.3285C18.787 44.3285 16.7768 43.6416 15.1408 42.3755C13.5047 41.1094 12.3354 39.3359 11.8164 37.3333H2.56705C2.1295 37.3334 1.69919 37.2216 1.317 37.0086C0.934815 36.7955 0.613435 36.4883 0.383385 36.1161C0.153335 35.7439 0.0222547 35.3191 0.00259301 34.882C-0.0170686 34.4449 0.0753415 34.01 0.271047 33.6187L4.52238 25.116V16.3333ZM16.8144 37.3333C17.224 38.0427 17.8131 38.6318 18.5225 39.0413C19.2319 39.4509 20.0366 39.6665 20.8557 39.6665C21.6748 39.6665 22.4795 39.4509 23.1889 39.0413C23.8983 38.6318 24.4874 38.0427 24.897 37.3333H16.8144ZM20.8557 4.66667C17.7615 4.66667 14.7941 5.89583 12.6061 8.08375C10.4182 10.2717 9.18905 13.2391 9.18905 16.3333V25.116C9.189 25.8401 9.02044 26.5543 8.69671 27.202L5.96671 32.6667H35.747L33.017 27.202C32.6925 26.5545 32.5232 25.8403 32.5224 25.116V16.3333C32.5224 13.2391 31.2932 10.2717 29.1053 8.08375C26.9174 5.89583 23.9499 4.66667 20.8557 4.66667Z" fill="white"/>
</g>
<defs>
<clipPath id="clip0_253_273">
<rect width="42" height="44" fill="white"/>
</clipPath>
</defs>
</svg>
