<svg width="46" height="48" viewBox="0 0 46 48" fill="none" xmlns="http://www.w3.org/2000/svg">
<path d="M23 0C20.5277 0 18.111 0.733112 16.0554 2.10663C13.9998 3.48015 12.3976 5.43238 11.4515 7.71646C10.5054 10.0005 10.2579 12.5139 10.7402 14.9386C11.2225 17.3634 12.413 19.5907 14.1612 21.3388C15.9093 23.087 18.1366 24.2775 20.5614 24.7598C22.9861 25.2421 25.4995 24.9946 27.7835 24.0485C30.0676 23.1024 32.0199 21.5002 33.3934 19.4446C34.7669 17.389 35.5 14.9723 35.5 12.5C35.5 9.18479 34.183 6.00537 31.8388 3.66117C29.4946 1.31696 26.3152 0 23 0ZM23 20C21.5166 20 20.0666 19.5601 18.8332 18.736C17.5999 17.9119 16.6386 16.7406 16.0709 15.3701C15.5032 13.9997 15.3547 12.4917 15.6441 11.0368C15.9335 9.58197 16.6478 8.24559 17.6967 7.1967C18.7456 6.14781 20.082 5.4335 21.5368 5.14411C22.9917 4.85472 24.4997 5.00325 25.8701 5.5709C27.2406 6.13856 28.4119 7.09985 29.236 8.33322C30.0601 9.56659 30.5 11.0166 30.5 12.5C30.5 14.4891 29.7098 16.3968 28.3033 17.8033C26.8968 19.2098 24.9891 20 23 20ZM45.5 47.5V45C45.5 40.3587 43.6563 35.9075 40.3744 32.6256C37.0925 29.3437 32.6413 27.5 28 27.5H18C13.3587 27.5 8.90752 29.3437 5.62563 32.6256C2.34374 35.9075 0.5 40.3587 0.5 45V47.5H5.5V45C5.5 41.6848 6.81696 38.5054 9.16117 36.1612C11.5054 33.817 14.6848 32.5 18 32.5H28C31.3152 32.5 34.4946 33.817 36.8388 36.1612C39.183 38.5054 40.5 41.6848 40.5 45V47.5H45.5Z" fill="white"/>
</svg>
